simulation
nRows=55
nColumns=15
endheader
time  TH_x TH_y TH_z SC_y  SC_z  SC_x  AC_y  AC_z  AC_x  GH_y  GH_z  GH_yy  EL_x  PS_y
0.000000  0.000000  0.000000  0.000000  -25.762380  -3.750794  -11.668160  59.476428  16.055572  -4.304032  -12.117039  15.518041  38.608933  24.573467  83.601568
0.028283  0.000000  0.000000  0.000000  -25.821003  -3.704203  -11.370591  59.391451  15.964165  -4.315166  -12.084353  15.480138  38.748456  24.405069  83.282513
0.056566  0.000000  0.000000  0.000000  -25.840188  -3.638469  -10.994861  59.262379  15.788494  -4.308291  -12.281596  15.473625  39.136654  24.209905  82.964331
0.084848  0.000000  0.000000  0.000000  -25.830659  -3.555646  -10.558999  59.105178  15.547136  -4.284558  -12.680515  15.510275  39.726329  23.991241  82.647615
0.113131  0.000000  0.000000  0.000000  -25.803141  -3.457786  -10.085413  58.935184  15.262302  -4.242433  -13.252860  15.601860  40.470286  23.752344  82.332958
0.141414  0.000000  0.000000  0.000000  -25.768355  -3.346942  -9.589722  58.768735  14.950177  -4.183493  -13.970379  15.760153  41.321330  23.496484  82.020956
0.169697  0.000000  0.000000  0.000000  -25.737028  -3.225167  -9.097490  58.620849  14.635214  -4.103426  -14.804819  15.996926  42.232265  23.226926  81.712200
0.197980  0.000000  0.000000  0.000000  -25.719882  -3.094514  -8.616851  58.509029  14.326731  -4.006749  -15.727930  16.323952  43.155895  22.946938  81.407286
0.226263  0.000000  0.000000  0.000000  -25.727642  -2.957037  -8.177513  58.447963  14.052241  -3.885966  -16.711460  16.753003  44.045023  22.659789  81.106806
0.254545  0.000000  0.000000  0.000000  -25.771031  -2.814788  -7.794551  58.454453  13.826615  -3.741261  -17.727157  17.295851  44.852455  22.368745  80.811354
0.282828  0.000000  0.000000  0.000000  -25.860773  -2.669819  -7.486575  58.544945  13.667692  -3.571019  -18.746769  17.964269  45.530994  22.077075  80.521525
0.311111  0.000000  0.000000  0.000000  -26.006900  -2.523939  -7.277956  58.733570  13.598788  -3.370451  -19.742998  18.769003  46.035149  21.787973  80.238391
0.339394  0.000000  0.000000  0.000000  -26.208192  -2.374933  -7.156619  59.011448  13.619919  -3.145525  -20.704085  19.704081  46.347174  21.503478  79.970844
0.367677  0.000000  0.000000  0.000000  -26.454269  -2.217323  -7.082548  59.350640  13.713570  -2.909714  -21.630907  20.749933  46.471897  21.224681  79.734132
0.395960  0.000000  0.000000  0.000000  -26.734488  -2.045531  -7.014945  59.722584  13.861696  -2.676316  -22.524712  21.886592  46.414804  20.952649  79.543690
0.424242  0.000000  0.000000  0.000000  -27.038203  -1.853982  -6.916623  60.098233  14.049189  -2.455954  -23.386745  23.094093  46.181378  20.688447  79.414954
0.452525  0.000000  0.000000  0.000000  -27.354901  -1.637193  -6.736958  60.450626  14.248918  -2.265353  -24.218160  24.352589  45.777026  20.433012  79.363099
0.480808  0.000000  0.000000  0.000000  -27.680171  -1.394010  -6.465719  60.767773  14.461164  -2.107917  -25.015680  25.647911  45.203527  20.181224  79.391143
0.509091  0.000000  0.000000  0.000000  -28.018227  -1.129394  -6.119956  61.062546  14.699413  -1.984764  -25.769782  26.973904  44.457536  19.919411  79.484932
0.537374  0.000000  0.000000  0.000000  -28.373934  -0.848769  -5.719216  61.349715  14.978602  -1.897003  -26.470468  28.325019  43.535321  19.633253  79.629018
0.565657  0.000000  0.000000  0.000000  -28.752154  -0.557559  -5.293814  61.642705  15.323187  -1.840747  -27.107741  29.695707  42.433150  19.308432  79.807950
0.593939  0.000000  0.000000  0.000000  -29.157747  -0.261183  -4.860652  61.956649  15.745915  -1.819114  -27.671606  31.080415  41.147336  18.930644  80.006279
0.622222  0.000000  0.000000  0.000000  -29.592968  0.036510  -4.440669  62.300132  16.261539  -1.831230  -28.153076  32.472336  39.691400  18.491571  80.208168
0.650505  0.000000  0.000000  0.000000  -30.053541  0.335617  -4.034308  62.669269  16.862769  -1.880547  -28.545694  33.861510  38.122121  17.997942  80.396820
0.678788  0.000000  0.000000  0.000000  -30.534176  0.636846  -3.640385  63.057977  17.540266  -1.970350  -28.843396  35.237491  36.502963  17.458811  80.555284
0.707071  0.000000  0.000000  0.000000  -31.029585  0.940905  -3.254755  63.460533  18.282042  -2.105205  -29.040117  36.589830  34.897394  16.883232  80.666611
0.735354  0.000000  0.000000  0.000000  -31.534480  1.248503  -2.872283  63.871352  19.075162  -2.289935  -29.129792  37.908080  33.368877  16.280258  80.713853
0.763636  0.000000  0.000000  0.000000  -32.045392  1.559319  -2.496519  64.285535  19.914634  -2.523239  -29.110986  39.183444  31.971459  15.658000  80.684213
0.791919  0.000000  0.000000  0.000000  -32.567377  1.868221  -2.122346  64.709094  20.788545  -2.799090  -29.003957  40.414850  30.715045  15.020146  80.584356
0.820202  0.000000  0.000000  0.000000  -33.107986  2.168671  -1.750551  65.150118  21.690484  -3.106316  -28.835309  41.603490  29.596623  14.369089  80.426641
0.848485  0.000000  0.000000  0.000000  -33.674769  2.454127  -1.379233  65.617346  22.611531  -3.435194  -28.631651  42.750554  28.613181  13.707223  80.223428
0.876768  0.000000  0.000000  0.000000  -34.275280  2.718049  -1.014702  66.118334  23.550177  -3.772592  -28.419586  43.857232  27.761706  13.036942  79.987077
0.905051  0.000000  0.000000  0.000000  -34.915022  2.954953  -0.656568  66.659728  24.498795  -4.109013  -28.223903  44.924334  27.038418  12.361594  79.729983
0.933333  0.000000  0.000000  0.000000  -35.580898  3.168948  -0.294515  67.229499  25.440920  -4.441938  -28.052831  45.949188  26.432567  11.693210  79.464866
0.961616  0.000000  0.000000  0.000000  -36.249879  3.369270  0.086310  67.805078  26.356058  -4.771354  -27.905762  46.927269  25.929679  11.048454  79.204617
0.989899  0.000000  0.000000  0.000000  -36.898843  3.565199  0.504376  68.363868  27.220361  -5.097609  -27.782006  47.854032  25.515247  10.444036  78.962132
1.018182  0.000000  0.000000  0.000000  -37.504668  3.766018  0.979447  68.882868  28.008798  -5.420407  -27.680873  48.724932  25.174763  9.896665  78.750303
1.046465  0.000000  0.000000  0.000000  -38.045311  3.980526  1.523255  69.338212  28.704059  -5.735607  -27.601542  49.535593  24.893974  9.422210  78.581382
1.074747  0.000000  0.000000  0.000000  -38.520766  4.207695  2.130637  69.729291  29.307404  -6.038587  -27.540524  50.285075  24.663858  9.019456  78.454490
1.103030  0.000000  0.000000  0.000000  -38.951599  4.437317  2.778801  70.077529  29.839026  -6.324423  -27.491842  50.975641  24.480273  8.671230  78.356493
1.131313  0.000000  0.000000  0.000000  -39.359163  4.658836  3.438794  70.404562  30.324947  -6.586755  -27.449422  51.609679  24.339263  8.359753  78.273787
1.159596  0.000000  0.000000  0.000000  -39.764812  4.861694  4.089353  70.733922  30.783856  -6.822731  -27.407192  52.189577  24.236873  8.067241  78.192767
1.187879  0.000000  0.000000  0.000000  -40.189688  5.035431  4.701914  71.087828  31.241153  -7.026977  -27.359135  52.717704  24.169113  7.776082  78.100056
1.216162  0.000000  0.000000  0.000000  -40.640499  5.176218  5.261978  71.474945  31.705906  -7.197196  -27.303135  53.195237  24.129676  7.480159  77.997818
1.244444  0.000000  0.000000  0.000000  -41.100509  5.290999  5.777798  71.881260  32.160972  -7.335581  -27.243411  53.621409  24.108484  7.192036  77.913459
1.272727  0.000000  0.000000  0.000000  -41.550831  5.387707  6.248334  72.288050  32.597826  -7.440611  -27.184763  53.995277  24.095114  6.925988  77.876699
1.301010  0.000000  0.000000  0.000000  -41.972578  5.474273  6.683481  72.678351  32.997781  -7.514851  -27.131989  54.315898  24.079145  6.696289  77.917256
1.329293  0.000000  0.000000  0.000000  -42.346870  5.558627  7.084768  73.033261  33.350297  -7.557784  -27.089889  54.582329  24.050158  6.517209  78.064834
1.357576  0.000000  0.000000  0.000000  -42.660349  5.646273  7.458286  73.339365  33.642115  -7.571766  -27.061533  54.795170  24.002785  6.397258  78.329495
1.385859  0.000000  0.000000  0.000000  -42.915821  5.735615  7.801145  73.595584  33.872916  -7.559625  -27.044939  54.959533  23.946428  6.328096  78.663833
1.414141  0.000000  0.000000  0.000000  -43.119030  5.823766  8.096819  73.800954  34.056077  -7.519783  -27.037208  55.081354  23.893179  6.298316  79.009989
1.442424  0.000000  0.000000  0.000000  -43.275724  5.907839  8.362595  73.960990  34.172367  -7.461733  -27.035437  55.166564  23.855128  6.296510  79.310102
1.470707  0.000000  0.000000  0.000000  -43.391649  5.984947  8.571165  74.072884  34.245290  -7.379805  -27.036727  55.221099  23.844366  6.311272  79.506311
1.498990  0.000000  0.000000  0.000000  -43.472111  6.052230  8.728078  74.140649  34.268528  -7.280238  -27.038326  55.250566  23.869832  6.332274  79.554232
1.527273  0.000000  0.000000  0.000000  -43.520005  6.106970  8.833065  74.170185  34.251107  -7.171835  -27.038300  55.258793  23.923125  6.355112  79.483554
